<svg width="16" height="16" viewBox="0 0 16 16" fill="none" xmlns="http://www.w3.org/2000/svg">
<path d="M8.04446 4.88892C6.31113 4.88892 4.93335 6.26669 4.93335 8.00003C4.93335 9.73336 6.31113 11.1111 8.04446 11.1111C9.77779 11.1111 11.1556 9.73336 11.1556 8.00003C11.1556 6.26669 9.77779 4.88892 8.04446 4.88892ZM8.04446 10.2222C6.80002 10.2222 5.82224 9.24447 5.82224 8.00003C5.82224 6.75558 6.80002 5.7778 8.04446 5.7778C9.28891 5.7778 10.2667 6.75558 10.2667 8.00003C10.2667 9.24447 9.28891 10.2222 8.04446 10.2222Z" fill="#F5F5F6"/>
<path d="M14.5778 6.53336L13.3334 6.13336L13.0667 5.46669L13.6889 4.31114C13.8222 4.04447 13.7778 3.68892 13.5556 3.46669L12.4889 2.40003C12.2667 2.1778 11.9111 2.13336 11.6445 2.26669L10.4889 2.88892L9.82225 2.62225L9.42225 1.3778C9.33336 1.11114 9.06669 0.888916 8.75558 0.888916H7.24447C6.93336 0.888916 6.66669 1.11114 6.62225 1.42225L6.22225 2.66669C5.95558 2.71114 5.73336 2.80003 5.51114 2.93336L4.35558 2.31114C4.08892 2.1778 3.73336 2.22225 3.51114 2.44447L2.44447 3.51114C2.22225 3.73336 2.1778 4.08892 2.31114 4.35558L2.88892 5.46669C2.80003 5.68892 2.71114 5.95558 2.62225 6.1778L1.3778 6.57781C1.11114 6.66669 0.888916 6.93336 0.888916 7.24447V8.75558C0.888916 9.06669 1.11114 9.33336 1.42225 9.42225L2.66669 9.82225L2.93336 10.4889L2.31114 11.6445C2.1778 11.9111 2.22225 12.2667 2.44447 12.4889L3.51114 13.5556C3.73336 13.7778 4.08892 13.8222 4.35558 13.6889L5.51114 13.0667L6.1778 13.3334L6.57781 14.6223C6.66669 14.8889 6.93336 15.1111 7.24447 15.1111H8.75558C9.06669 15.1111 9.33336 14.8889 9.42225 14.6223L9.82225 13.3334L10.4889 13.0667L11.6445 13.6889C11.9111 13.8222 12.2667 13.7778 12.4889 13.5556L13.5556 12.4889C13.7778 12.2667 13.8222 11.9111 13.6889 11.6445L13.0667 10.4889L13.3334 9.82225L14.6223 9.42225C14.8889 9.33336 15.1111 9.06669 15.1111 8.75558V7.24447C15.1111 6.93336 14.8889 6.62225 14.5778 6.53336ZM14.2222 8.62225L12.6222 9.11114L12.5778 9.33336L12.1778 10.2667L12.0445 10.4889L12.8445 11.9556L11.9556 12.8445L10.4889 12.0445L10.2667 12.1778C9.95558 12.3556 9.64447 12.4889 9.33336 12.5778L9.11114 12.6222L8.62225 14.2222H7.37781L6.88892 12.6222L6.66669 12.5778L5.73336 12.1778L5.51114 12.0445L4.04447 12.8445L3.15558 11.9556L3.95558 10.4889L3.82225 10.2667C3.64447 9.95558 3.51114 9.64447 3.42225 9.33336L3.3778 9.11114L1.7778 8.62225V7.37781L3.28892 6.93336L3.3778 6.71114C3.46669 6.35558 3.60003 6.04447 3.7778 5.73336L3.91114 5.51114L3.15558 4.04447L4.04447 3.15558L5.46669 3.95558L5.68892 3.82225C6.00003 3.64447 6.31114 3.51114 6.66669 3.42225L6.88892 3.33336L7.37781 1.7778H8.62225L9.11114 3.33336L9.33336 3.42225C9.64447 3.51114 9.95558 3.64447 10.2667 3.82225L10.4889 3.95558L11.9556 3.15558L12.8445 4.04447L12.0445 5.51114L12.1778 5.73336C12.3556 6.04447 12.4889 6.35558 12.5778 6.66669L12.6222 6.88892L14.2222 7.37781V8.62225Z" fill="#F5F5F6"/>
</svg>
