<svg width="16" height="16" viewBox="0 0 16 16" fill="none" xmlns="http://www.w3.org/2000/svg">
<path d="M11.6311 7.55555H8.44444V4.36888C8.44444 4.25101 8.39761 4.13796 8.31426 4.05461C8.23092 3.97126 8.11787 3.92444 7.99999 3.92444C7.88212 3.92444 7.76907 3.97126 7.68572 4.05461C7.60237 4.13796 7.55555 4.25101 7.55555 4.36888V7.55555H4.36888C4.25101 7.55555 4.13796 7.60237 4.05461 7.68572C3.97126 7.76907 3.92444 7.88212 3.92444 7.99999C3.92444 8.11787 3.97126 8.23092 4.05461 8.31426C4.13796 8.39761 4.25101 8.44444 4.36888 8.44444H7.55555V11.6311C7.55555 11.749 7.60237 11.862 7.68572 11.9454C7.76907 12.0287 7.88212 12.0756 7.99999 12.0756C8.11787 12.0756 8.23092 12.0287 8.31426 11.9454C8.39761 11.862 8.44444 11.749 8.44444 11.6311V8.44444H11.6311C11.749 8.44444 11.862 8.39761 11.9454 8.31426C12.0287 8.23092 12.0756 8.11787 12.0756 7.99999C12.0756 7.88212 12.0287 7.76907 11.9454 7.68572C11.862 7.60237 11.749 7.55555 11.6311 7.55555Z" fill="#F5F5F6"/>
<path d="M8.00003 0.888916C6.59359 0.888916 5.21872 1.30598 4.04931 2.08735C2.87989 2.86873 1.96844 3.97934 1.43022 5.27872C0.891997 6.57811 0.751173 8.00792 1.02556 9.38734C1.29994 10.7668 1.97721 12.0338 2.97172 13.0283C3.96622 14.0228 5.2333 14.7001 6.61272 14.9745C7.99214 15.2489 9.42195 15.1081 10.7213 14.5698C12.0207 14.0316 13.1313 13.1202 13.9127 11.9507C14.6941 10.7813 15.1111 9.40647 15.1111 8.00003C15.1111 6.11404 14.3619 4.3053 13.0283 2.97171C11.6948 1.63812 9.88601 0.888916 8.00003 0.888916ZM8.00003 14.2222C6.76939 14.2222 5.56639 13.8573 4.54315 13.1736C3.51991 12.4899 2.72239 11.5181 2.25145 10.3812C1.7805 9.24421 1.65728 7.99312 1.89737 6.78613C2.13745 5.57914 2.73006 4.47044 3.60025 3.60025C4.47045 2.73006 5.57914 2.13745 6.78614 1.89736C7.99313 1.65728 9.24421 1.7805 10.3812 2.25144C11.5181 2.72239 12.4899 3.51991 13.1736 4.54315C13.8573 5.56638 14.2223 6.76939 14.2223 8.00003C14.2223 9.65026 13.5667 11.2329 12.3998 12.3998C11.2329 13.5667 9.65027 14.2222 8.00003 14.2222Z" fill="#F5F5F6"/>
</svg>
