<svg width="12" height="12" viewBox="0 0 12 12" fill="none" xmlns="http://www.w3.org/2000/svg">
<path d="M10.49 1.28001C10.1696 0.963346 9.74846 0.76894 9.29965 0.730575C8.85084 0.69221 8.40278 0.812312 8.03333 1.07001C9.22092 1.56446 10.1911 2.46954 10.7667 3.62001C10.9888 3.2552 11.0823 2.82645 11.0322 2.40226C10.982 1.97808 10.7911 1.58294 10.49 1.28001Z" fill="#F5F5F6"/>
<path d="M3.80661 1.14336C3.43869 0.85115 2.97653 0.703723 2.50737 0.728901C2.0382 0.754078 1.59448 0.950119 1.25994 1.28002C0.92817 1.61399 0.731674 2.0589 0.708288 2.52907C0.684903 2.99924 0.836281 3.46145 1.13328 3.82669C1.66812 2.6367 2.61863 1.68264 3.80661 1.14336Z" fill="#F5F5F6"/>
<path d="M5.46663 1.36333C4.59634 1.465 3.77225 1.80963 3.08867 2.35778C2.40509 2.90593 1.88965 3.63546 1.60132 4.46287C1.313 5.29029 1.26344 6.18216 1.45832 7.03642C1.65321 7.89069 2.08465 8.67283 2.70329 9.29333L1.8533 10.1433C1.82243 10.1749 1.79808 10.2121 1.78163 10.2531C1.76518 10.294 1.75696 10.3378 1.75742 10.3819C1.75788 10.426 1.76703 10.4696 1.78434 10.5101C1.80165 10.5507 1.82678 10.5875 1.8583 10.6183C1.88981 10.6492 1.9271 10.6735 1.96803 10.69C2.00896 10.7064 2.05272 10.7147 2.09683 10.7142C2.14094 10.7137 2.18452 10.7046 2.2251 10.6873C2.26567 10.67 2.30243 10.6449 2.3333 10.6133L3.21996 9.72667C4.03081 10.3403 5.02098 10.6701 6.03781 10.6653C7.05463 10.6604 8.04164 10.3212 8.84663 9.7L9.75996 10.6133C9.82373 10.6679 9.90575 10.6965 9.98965 10.6932C10.0735 10.69 10.1531 10.6552 10.2125 10.5959C10.2718 10.5365 10.3066 10.4569 10.3099 10.373C10.3131 10.2891 10.2846 10.2071 10.23 10.1433L9.3333 9.26C10.0062 8.57074 10.4493 7.69014 10.6018 6.73905C10.7543 5.78795 10.6088 4.81296 10.1852 3.94786C9.76159 3.08275 9.08066 2.36993 8.23584 1.90719C7.39102 1.44445 6.42371 1.25448 5.46663 1.36333ZM6.52663 9.96667C5.69816 10.0752 4.85651 9.92153 4.11982 9.52728C3.38313 9.13304 2.78839 8.518 2.41909 7.7685C2.04978 7.019 1.92446 6.17266 2.0607 5.3483C2.19695 4.52394 2.58792 3.76293 3.17874 3.17211C3.76956 2.58129 4.53057 2.19032 5.35493 2.05408C6.17929 1.91783 7.02563 2.04316 7.77513 2.41246C8.52463 2.78176 9.13967 3.3765 9.53391 4.11319C9.92815 4.84988 10.0818 5.69153 9.9733 6.52C9.85883 7.39399 9.45888 8.20569 8.8356 8.82897C8.21232 9.45225 7.40061 9.8522 6.52663 9.96667Z" fill="#F5F5F6"/>
<path d="M8.30665 6.77997L6.28665 5.77997V3.16664C6.28665 3.08707 6.25504 3.01077 6.19878 2.95451C6.14252 2.89825 6.06621 2.86664 5.98665 2.86664C5.90708 2.86664 5.83077 2.89825 5.77451 2.95451C5.71825 3.01077 5.68665 3.08707 5.68665 3.16664V6.16664L8.03998 7.3333C8.11159 7.36823 8.19413 7.37327 8.26946 7.34733C8.34479 7.32138 8.40673 7.26658 8.44165 7.19497C8.47657 7.12336 8.48161 7.04082 8.45567 6.96549C8.42972 6.89016 8.37492 6.82822 8.30331 6.7933L8.30665 6.77997Z" fill="#F5F5F6"/>
</svg>
