<svg width="16" height="16" viewBox="0 0 16 16" fill="none" xmlns="http://www.w3.org/2000/svg">
<path d="M8.00003 7.55554C8.61535 7.55554 9.21685 7.37307 9.72847 7.03122C10.2401 6.68937 10.6388 6.20348 10.8743 5.635C11.1098 5.06652 11.1714 4.44097 11.0514 3.83748C10.9313 3.23398 10.635 2.67963 10.1999 2.24454C9.76482 1.80944 9.21047 1.51314 8.60698 1.39309C8.00348 1.27305 7.37794 1.33466 6.80946 1.57013C6.24098 1.80561 5.75509 2.20437 5.41323 2.71598C5.07138 3.2276 4.88892 3.82911 4.88892 4.44443C4.88892 5.26954 5.21669 6.06087 5.80014 6.64431C6.38359 7.22776 7.17491 7.55554 8.00003 7.55554ZM8.00003 2.2222C8.43954 2.2222 8.86918 2.35253 9.23463 2.59672C9.60007 2.8409 9.8849 3.18796 10.0531 3.59402C10.2213 4.00008 10.2653 4.44689 10.1796 4.87796C10.0938 5.30903 9.88216 5.70499 9.57138 6.01577C9.26059 6.32656 8.86463 6.5382 8.43356 6.62395C8.00249 6.70969 7.55568 6.66569 7.14962 6.49749C6.74356 6.3293 6.3965 6.04447 6.15232 5.67903C5.90814 5.31358 5.7778 4.88394 5.7778 4.44443C5.7778 3.85506 6.01193 3.28982 6.42868 2.87308C6.84543 2.45633 7.41066 2.2222 8.00003 2.2222Z" fill="#F5F5F6"/>
<path d="M13.5422 10.8311C12.8294 10.0778 11.9705 9.47773 11.018 9.06764C10.0654 8.65755 9.03924 8.44604 8.00217 8.44604C6.9651 8.44604 5.93892 8.65755 4.98637 9.06764C4.03383 9.47773 3.17492 10.0778 2.46217 10.8311C2.30764 10.9962 2.22182 11.2139 2.22217 11.44V13.7778C2.22217 14.0135 2.31582 14.2396 2.48252 14.4063C2.64922 14.573 2.87531 14.6667 3.11106 14.6667H12.8888C13.1246 14.6667 13.3507 14.573 13.5174 14.4063C13.6841 14.2396 13.7777 14.0135 13.7777 13.7778V11.44C13.7793 11.2145 13.6951 10.9968 13.5422 10.8311ZM12.8888 13.7778H3.11106V11.4355C3.74094 10.7723 4.49919 10.2441 5.33966 9.88323C6.18014 9.52232 7.08526 9.33621 7.99995 9.33621C8.91463 9.33621 9.81976 9.52232 10.6602 9.88323C11.5007 10.2441 12.259 10.7723 12.8888 11.4355V13.7778Z" fill="#F5F5F6"/>
</svg>
