<svg width="40" height="40" viewBox="0 0 40 40" fill="none" xmlns="http://www.w3.org/2000/svg">
<rect x="0.5" y="0.5" width="39" height="39" rx="7.5" stroke="white"/>
<path d="M28.8332 12.9333C27.3227 12.5296 25.8468 12.0057 24.4198 11.3667C23.0161 10.7577 21.6611 10.0423 20.3665 9.22667L19.9998 9L19.6398 9.23333C18.3453 10.049 16.9902 10.7644 15.5865 11.3733C14.1571 12.0104 12.6791 12.5321 11.1665 12.9333L10.6665 13.06V18.62C10.6665 27.5467 19.6865 30.8867 19.7732 30.92L19.9998 31L20.2265 30.92C20.3198 30.92 29.3332 27.5533 29.3332 18.62V13.06L28.8332 12.9333ZM27.9998 18.62C27.9998 25.9533 21.3332 29.0267 19.9998 29.5733C18.6665 29.0267 11.9998 25.9467 11.9998 18.62V14.0933C13.4062 13.6891 14.7828 13.1879 16.1198 12.5933C17.4572 12.0158 18.7535 11.3475 19.9998 10.5933C21.2461 11.3475 22.5425 12.0158 23.8798 12.5933C25.2169 13.1879 26.5935 13.6891 27.9998 14.0933V18.62Z" fill="#F5F5F6"/>
<path d="M15.2531 19.2466C15.1256 19.1374 14.9616 19.0804 14.7938 19.0868C14.626 19.0933 14.4668 19.1629 14.3481 19.2816C14.2294 19.4003 14.1598 19.5595 14.1533 19.7273C14.1468 19.8951 14.2039 20.0591 14.3131 20.1866L18.3131 24.1866L25.5998 17.18C25.7271 17.0562 25.8 16.8869 25.8025 16.7094C25.805 16.5319 25.7369 16.3606 25.6131 16.2333C25.4894 16.106 25.3201 16.0331 25.1426 16.0306C24.965 16.0281 24.7938 16.0962 24.6665 16.22L18.3531 22.3466L15.2531 19.2466Z" fill="#F5F5F6"/>
</svg>
