<svg width="24" height="24" viewBox="0 0 24 24" fill="none" xmlns="http://www.w3.org/2000/svg">
<g clip-path="url(#clip0_176_413)">
<path d="M12 4C10.4178 4 8.87104 4.46919 7.55544 5.34824C6.23985 6.22729 5.21447 7.47672 4.60897 8.93853C4.00347 10.4003 3.84504 12.0089 4.15372 13.5607C4.4624 15.1126 5.22433 16.538 6.34315 17.6569C7.46197 18.7757 8.88743 19.5376 10.4393 19.8463C11.9911 20.155 13.5997 19.9965 15.0615 19.391C16.5233 18.7855 17.7727 17.7602 18.6518 16.4446C19.5308 15.129 20 13.5823 20 12C20 9.87827 19.1571 7.84344 17.6569 6.34315C16.1566 4.84286 14.1217 4 12 4ZM12 18.6667C10.6815 18.6667 9.39253 18.2757 8.2962 17.5431C7.19987 16.8106 6.34539 15.7694 5.84081 14.5512C5.33622 13.333 5.2042 11.9926 5.46144 10.6994C5.71867 9.40619 6.35361 8.21831 7.28596 7.28596C8.21831 6.35361 9.4062 5.71867 10.6994 5.46143C11.9926 5.2042 13.3331 5.33622 14.5512 5.8408C15.7694 6.34539 16.8106 7.19987 17.5431 8.2962C18.2757 9.39253 18.6667 10.6815 18.6667 12C18.6667 12.8755 18.4942 13.7424 18.1592 14.5512C17.8242 15.3601 17.3331 16.095 16.714 16.714C16.095 17.3331 15.3601 17.8242 14.5512 18.1592C13.7424 18.4942 12.8755 18.6667 12 18.6667Z" fill="#F5F5F6"/>
<path d="M10.8935 15.8267L7.56021 12.4933C7.45099 12.3658 7.39392 12.2017 7.4004 12.034C7.40688 11.8662 7.47644 11.707 7.59517 11.5883C7.71389 11.4696 7.87305 11.4 8.04084 11.3935C8.20862 11.387 8.37267 11.4441 8.50021 11.5533L10.8935 13.9467L15.4135 9.42666C15.5411 9.31744 15.7051 9.26037 15.8729 9.26685C16.0407 9.27334 16.1999 9.34289 16.3186 9.46162C16.4373 9.58035 16.5069 9.73951 16.5133 9.90729C16.5198 10.0751 16.4628 10.2391 16.3535 10.3667L10.8935 15.8267Z" fill="#F5F5F6"/>
</g>
<defs>
<clipPath id="clip0_176_413">
<rect width="24" height="24" fill="white"/>
</clipPath>
</defs>
</svg>
