<svg width="16" height="16" viewBox="0 0 16 16" fill="none" xmlns="http://www.w3.org/2000/svg">
<path d="M6.09789 12.3068L1.46234 7.67573C1.38953 7.5907 1.35148 7.48134 1.3558 7.36948C1.36012 7.25762 1.40649 7.15152 1.48564 7.07237C1.5648 6.99321 1.6709 6.94684 1.78276 6.94252C1.89462 6.9382 2.00398 6.97625 2.08901 7.04906L6.08901 11.0491L13.9068 3.24017C13.9918 3.16736 14.1012 3.12931 14.213 3.13363C14.3249 3.13795 14.431 3.18432 14.5101 3.26348C14.5893 3.34263 14.6357 3.44874 14.64 3.56059C14.6443 3.67245 14.6063 3.78181 14.5335 3.86684L6.09789 12.3068Z" fill="#FAFAFA"/>
</svg>
