<svg width="32" height="32" viewBox="0 0 32 32" fill="none" xmlns="http://www.w3.org/2000/svg">
<path d="M16 5.33331C13.8904 5.33331 11.8281 5.9589 10.074 7.13097C8.31984 8.30304 6.95267 9.96895 6.14533 11.918C5.338 13.8671 5.12676 16.0118 5.53834 18.0809C5.94991 20.1501 6.96581 22.0507 8.45757 23.5425C9.94933 25.0342 11.85 26.0501 13.9191 26.4617C15.9882 26.8733 18.1329 26.662 20.082 25.8547C22.0311 25.0474 23.697 23.6802 24.8691 21.9261C26.0411 20.1719 26.6667 18.1096 26.6667 16C26.6667 13.171 25.5429 10.4579 23.5425 8.45751C21.5421 6.45712 18.829 5.33331 16 5.33331ZM16 24.8889C14.242 24.8889 12.5234 24.3675 11.0616 23.3908C9.59987 22.4141 8.46056 21.0258 7.78778 19.4016C7.115 17.7774 6.93897 15.9901 7.28195 14.2658C7.62493 12.5416 8.47152 10.9577 9.71465 9.71459C10.9578 8.47145 12.5416 7.62487 14.2659 7.28189C15.9902 6.93891 17.7774 7.11494 19.4017 7.78772C21.0259 8.4605 22.4142 9.59981 23.3909 11.0616C24.3676 12.5233 24.8889 14.2419 24.8889 16C24.8889 17.1673 24.659 18.3232 24.2123 19.4016C23.7656 20.4801 23.1108 21.46 22.2854 22.2854C21.46 23.1108 20.4801 23.7655 19.4017 24.2122C18.3232 24.659 17.1674 24.8889 16 24.8889Z" fill="#F5F5F6"/>
<path d="M14.5244 21.1022L10.08 16.6578C9.93433 16.4877 9.85823 16.269 9.86687 16.0453C9.87551 15.8216 9.96826 15.6094 10.1266 15.4511C10.2849 15.2928 10.4971 15.2 10.7208 15.1914C10.9445 15.1827 11.1632 15.2588 11.3333 15.4045L14.5244 18.5956L20.5511 12.5689C20.7211 12.4233 20.9398 12.3472 21.1636 12.3558C21.3873 12.3645 21.5995 12.4572 21.7578 12.6155C21.9161 12.7738 22.0088 12.986 22.0175 13.2097C22.0261 13.4335 21.95 13.6522 21.8044 13.8222L14.5244 21.1022Z" fill="#F5F5F6"/>
</svg>
