<svg width="16" height="16" viewBox="0 0 16 16" fill="none" xmlns="http://www.w3.org/2000/svg">
<path d="M4.44446 2.3111H12.4445V2.99999H4.44446V2.3111Z" fill="#F5F5F6"/>
<path d="M12.8889 3.55558H4.38222C4.2688 3.55398 4.15688 3.52941 4.05321 3.48338C3.94954 3.43734 3.85627 3.37078 3.77902 3.28772C3.70177 3.20465 3.64215 3.10681 3.60374 3.00007C3.56533 2.89334 3.54894 2.77993 3.55556 2.66669C3.555 2.44134 3.64007 2.22419 3.79353 2.05917C3.947 1.89415 4.15742 1.79358 4.38222 1.7778H12.8889C13.0068 1.7778 13.1198 1.73098 13.2032 1.64763C13.2865 1.56428 13.3333 1.45123 13.3333 1.33336C13.3333 1.21549 13.2865 1.10244 13.2032 1.01909C13.1198 0.935741 13.0068 0.888916 12.8889 0.888916H4.38222C3.92159 0.905048 3.48524 1.09945 3.16518 1.43111C2.84512 1.76278 2.66639 2.20578 2.66667 2.66669C2.66222 2.73922 2.66222 2.81195 2.66667 2.88447C2.66239 2.9199 2.66239 2.95571 2.66667 2.99114V13.3334C2.66639 13.7943 2.84512 14.2373 3.16518 14.5689C3.48524 14.9006 3.92159 15.095 4.38222 15.1111H12.8889C13.0068 15.1111 13.1198 15.0643 13.2032 14.981C13.2865 14.8976 13.3333 14.7846 13.3333 14.6667V4.03114C13.3336 3.91022 13.2878 3.79375 13.2052 3.70541C13.1227 3.61707 13.0095 3.56349 12.8889 3.55558ZM12.4444 14.2222H4.38222C4.15742 14.2065 3.947 14.1059 3.79353 13.9409C3.64007 13.7759 3.555 13.5587 3.55556 13.3334V4.24447C3.80826 4.38388 4.09374 4.45295 4.38222 4.44447H12.4444V14.2222Z" fill="#F5F5F6"/>
</svg>
