<svg width="27" height="24" viewBox="0 0 27 24" fill="none" xmlns="http://www.w3.org/2000/svg">
<path d="M11.7924 17.2401L7.88349 13.6667C7.76401 13.5392 7.70158 13.3751 7.70867 13.2074C7.71576 13.0396 7.79185 12.8804 7.92173 12.7617C8.05161 12.643 8.22571 12.5734 8.40926 12.5669C8.5928 12.5604 8.77225 12.6175 8.91176 12.7267L11.7924 15.3334L18.0933 9.57339C18.2328 9.46417 18.4123 9.4071 18.5958 9.41358C18.7794 9.42006 18.9535 9.48962 19.0833 9.60835C19.2132 9.72708 19.2893 9.88624 19.2964 10.054C19.3035 10.2218 19.2411 10.3859 19.1216 10.5134L11.7924 17.2401Z" fill="#999999"/>
<path d="M23.5191 4H21.1489V5.33333H23.3367V20H2.91711V5.33333H5.10492V4H2.73479C2.56431 4.0026 2.39607 4.03588 2.23966 4.09794C2.08326 4.15999 1.94176 4.24961 1.82324 4.36166C1.70473 4.47371 1.61152 4.60601 1.54895 4.751C1.48638 4.89599 1.45566 5.05083 1.45856 5.20667V20.1267C1.45566 20.2825 1.48638 20.4373 1.54895 20.5823C1.61152 20.7273 1.70473 20.8596 1.82324 20.9717C1.94176 21.0837 2.08326 21.1733 2.23966 21.2354C2.39607 21.2974 2.56431 21.3307 2.73479 21.3333H23.5191C23.6895 21.3307 23.8578 21.2974 24.0142 21.2354C24.1706 21.1733 24.3121 21.0837 24.4306 20.9717C24.5491 20.8596 24.6423 20.7273 24.7049 20.5823C24.7675 20.4373 24.7982 20.2825 24.7953 20.1267V5.20667C24.7982 5.05083 24.7675 4.89599 24.7049 4.751C24.6423 4.60601 24.5491 4.47371 24.4306 4.36166C24.3121 4.24961 24.1706 4.15999 24.0142 4.09794C23.8578 4.03588 23.6895 4.0026 23.5191 4Z" fill="#999999"/>
<path d="M7.29275 6.66671C7.48616 6.66671 7.67166 6.59647 7.80842 6.47145C7.94519 6.34642 8.02202 6.17685 8.02202 6.00004V2.00004C8.02202 1.82323 7.94519 1.65366 7.80842 1.52864C7.67166 1.40361 7.48616 1.33337 7.29275 1.33337C7.09933 1.33337 6.91384 1.40361 6.77708 1.52864C6.64031 1.65366 6.56348 1.82323 6.56348 2.00004V6.00004C6.56348 6.17685 6.64031 6.34642 6.77708 6.47145C6.91384 6.59647 7.09933 6.66671 7.29275 6.66671Z" fill="#999999"/>
<path d="M18.9611 6.66671C19.1545 6.66671 19.34 6.59647 19.4768 6.47145C19.6135 6.34642 19.6904 6.17685 19.6904 6.00004V2.00004C19.6904 1.82323 19.6135 1.65366 19.4768 1.52864C19.34 1.40361 19.1545 1.33337 18.9611 1.33337C18.7677 1.33337 18.5822 1.40361 18.4454 1.52864C18.3086 1.65366 18.2318 1.82323 18.2318 2.00004V6.00004C18.2318 6.17685 18.3086 6.34642 18.4454 6.47145C18.5822 6.59647 18.7677 6.66671 18.9611 6.66671Z" fill="#999999"/>
<path d="M9.48059 4H16.7733V5.33333H9.48059V4Z" fill="#999999"/>
</svg>
