<svg width="27" height="24" viewBox="0 0 27 24" fill="none" xmlns="http://www.w3.org/2000/svg">
<path d="M24.5838 11.5266L13.6447 1.52663C13.508 1.40246 13.3232 1.33276 13.1305 1.33276C12.9379 1.33276 12.753 1.40246 12.6164 1.52663L1.67731 11.5266C1.55784 11.6542 1.49541 11.8182 1.5025 11.986C1.50959 12.1538 1.58567 12.3129 1.71555 12.4317C1.84543 12.5504 2.01954 12.62 2.20308 12.6264C2.38662 12.6329 2.56608 12.5758 2.70559 12.4666L13.1269 2.93996L23.5482 12.4733C23.6877 12.5825 23.8672 12.6396 24.0507 12.6331C24.2342 12.6266 24.4083 12.5571 24.5382 12.4383C24.6681 12.3196 24.7442 12.1604 24.7513 11.9927C24.7584 11.8249 24.6959 11.6608 24.5765 11.5333L24.5838 11.5266Z" fill="#999999"/>
<path d="M20.4196 21.3333H16.7732V14.6666H9.48052V21.3333H5.83416V12L4.37561 13.3333V21.3333C4.37561 21.6869 4.52928 22.0261 4.80281 22.2761C5.07634 22.5262 5.44732 22.6666 5.83416 22.6666H10.9391V16H15.3147V22.6666H20.4196C20.8064 22.6666 21.1774 22.5262 21.451 22.2761C21.7245 22.0261 21.8781 21.6869 21.8781 21.3333V13.1733L20.4196 11.84V21.3333Z" fill="#999999"/>
</svg>
