<svg width="16" height="16" viewBox="0 0 16 16" fill="none" xmlns="http://www.w3.org/2000/svg">
<path d="M7.99996 2.66669C6.94513 2.66669 5.91398 2.97948 5.03692 3.56552C4.15986 4.15155 3.47627 4.9845 3.0726 5.95904C2.66894 6.93358 2.56332 8.00594 2.76911 9.0405C2.97489 10.0751 3.48285 11.0254 4.22873 11.7713C4.97461 12.5171 5.92491 13.0251 6.95948 13.2309C7.99405 13.4367 9.0664 13.331 10.0409 12.9274C11.0155 12.5237 11.8484 11.8401 12.4345 10.9631C13.0205 10.086 13.3333 9.05485 13.3333 8.00002C13.3333 6.58553 12.7714 5.22898 11.7712 4.22878C10.771 3.22859 9.41445 2.66669 7.99996 2.66669ZM7.99996 12.4445C7.12093 12.4445 6.26165 12.1838 5.53076 11.6954C4.79988 11.2071 4.23022 10.513 3.89383 9.70084C3.55744 8.88872 3.46943 7.99509 3.64092 7.13295C3.81241 6.27081 4.2357 5.47889 4.85726 4.85732C5.47883 4.23576 6.27076 3.81246 7.13289 3.64097C7.99503 3.46948 8.88866 3.5575 9.70078 3.89389C10.5129 4.23028 11.207 4.79993 11.6954 5.53082C12.1837 6.2617 12.4444 7.12099 12.4444 8.00002C12.4444 8.58367 12.3294 9.16161 12.1061 9.70084C11.8827 10.2401 11.5554 10.73 11.1427 11.1427C10.73 11.5554 10.24 11.8828 9.70078 12.1062C9.16155 12.3295 8.58361 12.4445 7.99996 12.4445Z" fill="#F5F5F6"/>
<path d="M8.00002 8.92C7.84678 8.92 7.69982 8.85913 7.59147 8.75077C7.48311 8.64242 7.42224 8.49546 7.42224 8.34222V5.67556C7.42224 5.52232 7.48311 5.37536 7.59147 5.26701C7.69982 5.15865 7.84678 5.09778 8.00002 5.09778C8.15325 5.09778 8.30022 5.15865 8.40857 5.26701C8.51692 5.37536 8.5778 5.52232 8.5778 5.67556V8.34222C8.5778 8.49546 8.51692 8.64242 8.40857 8.75077C8.30022 8.85913 8.15325 8.92 8.00002 8.92Z" fill="#F5F5F6"/>
<path d="M7.97782 10.8978C8.34601 10.8978 8.64449 10.5993 8.64449 10.2311C8.64449 9.86293 8.34601 9.56445 7.97782 9.56445C7.60963 9.56445 7.31116 9.86293 7.31116 10.2311C7.31116 10.5993 7.60963 10.8978 7.97782 10.8978Z" fill="#F5F5F6"/>
</svg>
