<svg width="44" height="44" viewBox="0 0 44 44" fill="none" xmlns="http://www.w3.org/2000/svg">
<rect x="0.5" y="0.5" width="43" height="43" rx="7.5" stroke="#F5F5F6"/>
<path d="M18.1096 14.5085L13.8693 18.7487C13.5656 19.0525 13.5656 19.5449 13.8693 19.8487L14.1828 20.1622C14.4865 20.4659 14.979 20.4659 15.2827 20.1622L19.523 15.9219C19.8268 15.6181 19.8268 15.1257 19.523 14.8219L19.2095 14.5084C18.9058 14.2047 18.4133 14.2047 18.1096 14.5085Z" fill="#F5F5F6"/>
<path d="M26.161 21.0666L26.651 20.5766C27.3822 19.8494 27.7945 18.8616 27.7974 17.8304C27.8004 16.7992 27.3936 15.8091 26.6666 15.0777L22.5522 10.9866C21.8229 10.2576 20.8339 9.84802 19.8027 9.84802C18.7715 9.84802 17.7825 10.2576 17.0533 10.9866L10.4033 17.6366C9.67421 18.3659 9.26465 19.3549 9.26465 20.3861C9.26465 21.4173 9.67421 22.4063 10.4033 23.1355L14.4944 27.2266C15.2236 27.9557 16.2126 28.3653 17.2438 28.3653C18.275 28.3653 19.264 27.9557 19.9933 27.2266L20.3044 26.9155L21.9999 28.5955H24.6755V30.9289H27.5455V32.1966L29.7777 34.4444H34.4444V29.35L26.161 21.0666ZM32.8888 32.8889H30.4466L29.0699 31.52V29.3422H26.2077V27.0089H22.6222L20.2888 24.6755L18.8888 26.13C18.4513 26.5669 17.8583 26.8124 17.2399 26.8124C16.6216 26.8124 16.0285 26.5669 15.591 26.13L11.4999 22C11.063 21.5625 10.8175 20.9694 10.8175 20.3511C10.8175 19.7327 11.063 19.1397 11.4999 18.7022L18.1577 12.0444C18.5952 11.6075 19.1883 11.362 19.8066 11.362C20.4249 11.362 21.018 11.6075 21.4555 12.0444L25.5466 16.1355C25.9836 16.573 26.229 17.1661 26.229 17.7844C26.229 18.4028 25.9836 18.9958 25.5466 19.4333L23.991 20.9889L32.8888 29.9955V32.8889Z" fill="#F5F5F6"/>
</svg>
