<svg width="12" height="12" viewBox="0 0 12 12" fill="none" xmlns="http://www.w3.org/2000/svg">
<path d="M5.99997 2.23999C5.6222 2.23999 5.25293 2.35201 4.93883 2.56188C4.62473 2.77176 4.37992 3.07006 4.23536 3.41907C4.09079 3.76807 4.05297 4.15211 4.12667 4.52261C4.20036 4.89312 4.38227 5.23345 4.64939 5.50057C4.91651 5.76768 5.25684 5.94959 5.62734 6.02329C5.99785 6.09699 6.38189 6.05916 6.73089 5.9146C7.0799 5.77004 7.3782 5.52523 7.58807 5.21113C7.79795 4.89703 7.90997 4.52775 7.90997 4.14999C7.90997 3.64343 7.70873 3.15761 7.35054 2.79942C6.99235 2.44122 6.50653 2.23999 5.99997 2.23999ZM5.99997 5.39332C5.75406 5.39332 5.51367 5.3204 5.30921 5.18378C5.10474 5.04717 4.94538 4.85298 4.85128 4.62579C4.75717 4.3986 4.73255 4.14861 4.78052 3.90743C4.8285 3.66625 4.94691 3.4447 5.1208 3.27082C5.29468 3.09694 5.51622 2.97852 5.7574 2.93055C5.99859 2.88257 6.24858 2.9072 6.47577 3.0013C6.70296 3.09541 6.89714 3.25477 7.03376 3.45923C7.17038 3.6637 7.2433 3.90408 7.2433 4.14999C7.24242 4.47917 7.11103 4.79456 6.87796 5.02701C6.64489 5.25946 6.32914 5.38999 5.99997 5.38999V5.39332Z" fill="#F5F5F6"/>
<path d="M6.00003 0.666687C4.96176 0.667554 3.96603 1.07925 3.2303 1.81185C2.49457 2.54446 2.07865 3.53843 2.07336 4.57669C2.07336 6.13335 2.9467 7.43669 3.5867 8.38669L3.70336 8.56002C4.3403 9.48277 5.02339 10.3728 5.75003 11.2267L6.00336 11.5234L6.2567 11.2267C6.98334 10.3728 7.66643 9.48277 8.30336 8.56002L8.42003 8.38335C9.0567 7.43335 9.93003 6.13335 9.93003 4.57669C9.92474 3.53786 9.50836 2.54338 8.77191 1.81068C8.03547 1.07798 7.03888 0.666674 6.00003 0.666687ZM7.86336 8.00002L7.74336 8.17669C7.17003 9.03669 6.41003 10 6.00003 10.4767C5.6067 10 4.83003 9.03669 4.2567 8.17669L4.14003 8.00002C3.55003 7.12002 2.74003 5.91669 2.74003 4.56335C2.74003 4.13524 2.82435 3.71133 2.98818 3.31581C3.15201 2.92028 3.39214 2.5609 3.69486 2.25819C3.99758 1.95547 4.35696 1.71534 4.75248 1.55151C5.148 1.38768 5.57192 1.30335 6.00003 1.30335C6.42814 1.30335 6.85206 1.38768 7.24758 1.55151C7.6431 1.71534 8.00248 1.95547 8.3052 2.25819C8.60792 2.5609 8.84805 2.92028 9.01188 3.31581C9.17571 3.71133 9.26003 4.13524 9.26003 4.56335C9.26003 5.93002 8.45336 7.13335 7.86336 8.00002Z" fill="#F5F5F6"/>
</svg>
