<svg width="40" height="40" viewBox="0 0 40 40" fill="none" xmlns="http://www.w3.org/2000/svg">
<rect x="0.5" y="0.5" width="39" height="39" rx="7.5" stroke="#F5F5F6"/>
<path d="M20.0598 21.7267C19.7009 21.7294 19.3532 21.8522 19.0722 22.0756C18.7913 22.2989 18.5932 22.6099 18.5095 22.959C18.4259 23.3081 18.4616 23.6751 18.6109 24.0015C18.7601 24.3279 19.0144 24.595 19.3332 24.76V26.6667H20.6665V24.82C21.0107 24.679 21.2953 24.4228 21.4718 24.0953C21.6482 23.7678 21.7055 23.3892 21.6339 23.0241C21.5623 22.6591 21.3662 22.3302 21.0792 22.0936C20.7921 21.857 20.4318 21.7273 20.0598 21.7267Z" fill="#F5F5F6"/>
<path d="M25.3332 18V15.1467C25.3618 13.7013 24.8167 12.3034 23.8172 11.2589C22.8177 10.2144 21.4451 9.60834 19.9998 9.57336C18.5546 9.60834 17.182 10.2144 16.1825 11.2589C15.183 12.3034 14.6379 13.7013 14.6665 15.1467V18H12.6665V29.3334C12.6665 29.687 12.807 30.0261 13.057 30.2762C13.3071 30.5262 13.6462 30.6667 13.9998 30.6667H25.9998C26.3535 30.6667 26.6926 30.5262 26.9426 30.2762C27.1927 30.0261 27.3332 29.687 27.3332 29.3334V18H25.3332ZM15.9998 15.1467C15.9711 14.0549 16.3757 12.996 17.1252 12.2015C17.8747 11.4071 18.9082 10.9416 19.9998 10.9067C21.0915 10.9416 22.125 11.4071 22.8745 12.2015C23.624 12.996 24.0286 14.0549 23.9998 15.1467V18H15.9998V15.1467ZM13.9998 29.3334V19.3334H25.9998V29.3334H13.9998Z" fill="#F5F5F6"/>
</svg>
