<svg width="16" height="16" viewBox="0 0 16 16" fill="none" xmlns="http://www.w3.org/2000/svg">
<path d="M3.11106 2.66666H10.2222V7.02222H11.1111V2.66666C11.1111 2.43091 11.0174 2.20482 10.8507 2.03812C10.684 1.87142 10.4579 1.77777 10.2222 1.77777H3.11106C2.87531 1.77777 2.64922 1.87142 2.48252 2.03812C2.31582 2.20482 2.22217 2.43091 2.22217 2.66666V13.3333C2.22217 13.5691 2.31582 13.7952 2.48252 13.9619C2.64922 14.1286 2.87531 14.2222 3.11106 14.2222H10.2222C10.4579 14.2222 10.684 14.1286 10.8507 13.9619C11.0174 13.7952 11.1111 13.5691 11.1111 13.3333H3.11106V2.66666Z" fill="#F5F5F6"/>
<path d="M12.5155 7.67999C12.4305 7.60718 12.3211 7.56913 12.2093 7.57345C12.0974 7.57777 11.9913 7.62414 11.9122 7.7033C11.833 7.78245 11.7866 7.88855 11.7823 8.00041C11.778 8.11227 11.8161 8.22163 11.8889 8.30666L13.3911 9.77777H6.94664C6.82877 9.77777 6.71572 9.82459 6.63237 9.90794C6.54902 9.99129 6.5022 10.1043 6.5022 10.2222C6.5022 10.3401 6.54902 10.4531 6.63237 10.5365C6.71572 10.6198 6.82877 10.6667 6.94664 10.6667H13.3911L11.8889 12.2044C11.8423 12.2443 11.8046 12.2933 11.7779 12.3484C11.7512 12.4036 11.7362 12.4636 11.7338 12.5249C11.7315 12.5861 11.7418 12.6471 11.7641 12.7041C11.7865 12.7612 11.8204 12.813 11.8637 12.8563C11.907 12.8996 11.9588 12.9335 12.0158 12.9558C12.0729 12.9782 12.1339 12.9885 12.1951 12.9861C12.2563 12.9838 12.3164 12.9688 12.3715 12.9421C12.4267 12.9154 12.4757 12.8776 12.5155 12.8311L15.1111 10.2533L12.5155 7.67999Z" fill="#F5F5F6"/>
</svg>
