<svg width="40" height="40" viewBox="0 0 40 40" fill="none" xmlns="http://www.w3.org/2000/svg">
<rect x="0.5" y="0.5" width="39" height="39" rx="7.5" stroke="#F5F5F6"/>
<path d="M29.3335 12H10.6668C10.3132 12 9.97407 12.1405 9.72402 12.3905C9.47397 12.6406 9.3335 12.9797 9.3335 13.3333V26.6667C9.3335 27.0203 9.47397 27.3594 9.72402 27.6095C9.97407 27.8595 10.3132 28 10.6668 28H29.3335C29.6871 28 30.0263 27.8595 30.2763 27.6095C30.5264 27.3594 30.6668 27.0203 30.6668 26.6667V13.3333C30.6668 12.9797 30.5264 12.6406 30.2763 12.3905C30.0263 12.1405 29.6871 12 29.3335 12ZM28.3068 26.6667H11.7735L16.4402 21.84L15.4802 20.9133L10.6668 25.8933V14.3467L18.9535 22.5933C19.2033 22.8417 19.5412 22.9811 19.8935 22.9811C20.2457 22.9811 20.5837 22.8417 20.8335 22.5933L29.3335 14.14V25.8067L24.4268 20.9L23.4868 21.84L28.3068 26.6667ZM11.5402 13.3333H28.2535L19.8935 21.6467L11.5402 13.3333Z" fill="#F5F5F6"/>
</svg>
