<svg width="16" height="16" viewBox="0 0 16 16" fill="none" xmlns="http://www.w3.org/2000/svg">
<path d="M14.4489 12.3689C14.0203 11.9868 13.6451 11.5488 13.3334 11.0667C12.9927 10.4013 12.7887 9.67438 12.7334 8.92888V6.73332C12.7363 5.56248 12.3116 4.43087 11.539 3.55109C10.7665 2.67131 9.69922 2.10393 8.53781 1.95555V1.38221C8.53781 1.22485 8.4753 1.07393 8.36403 0.962663C8.25276 0.851391 8.10184 0.788879 7.94448 0.788879C7.78712 0.788879 7.6362 0.851391 7.52493 0.962663C7.41366 1.07393 7.35115 1.22485 7.35115 1.38221V1.96443C6.20015 2.12351 5.1458 2.69433 4.38338 3.57115C3.62096 4.44797 3.20214 5.57139 3.20448 6.73332V8.92888C3.14917 9.67438 2.94516 10.4013 2.60448 11.0667C2.29821 11.5477 1.92901 11.9857 1.5067 12.3689C1.45929 12.4105 1.4213 12.4618 1.39524 12.5193C1.36919 12.5767 1.35567 12.6391 1.35559 12.7022V13.3067C1.35559 13.4245 1.40242 13.5376 1.48577 13.6209C1.56912 13.7043 1.68216 13.7511 1.80004 13.7511H14.1556C14.2735 13.7511 14.3865 13.7043 14.4699 13.6209C14.5532 13.5376 14.6 13.4245 14.6 13.3067V12.7022C14.6 12.6391 14.5864 12.5767 14.5604 12.5193C14.5343 12.4618 14.4963 12.4105 14.4489 12.3689ZM2.28004 12.8622C2.69346 12.4627 3.05753 12.015 3.36448 11.5289C3.79372 10.7253 4.04389 9.83832 4.09781 8.92888V6.73332C4.08019 6.21245 4.16756 5.69336 4.35472 5.20695C4.54189 4.72055 4.82502 4.27678 5.18726 3.90208C5.54949 3.52738 5.98343 3.2294 6.46323 3.02589C6.94302 2.82238 7.45886 2.7175 7.98004 2.7175C8.50121 2.7175 9.01705 2.82238 9.49684 3.02589C9.97664 3.2294 10.4106 3.52738 10.7728 3.90208C11.1351 4.27678 11.4182 4.72055 11.6053 5.20695C11.7925 5.69336 11.8799 6.21245 11.8623 6.73332V8.92888C11.9162 9.83832 12.1664 10.7253 12.5956 11.5289C12.9025 12.015 13.2666 12.4627 13.68 12.8622H2.28004Z" fill="#F5F5F6"/>
<path d="M7.99995 15.2356C8.27992 15.2291 8.54859 15.1239 8.75844 14.9384C8.96828 14.753 9.10578 14.4993 9.14662 14.2222H6.80884C6.85083 14.5068 6.99476 14.7665 7.21386 14.9529C7.43296 15.1393 7.71232 15.2397 7.99995 15.2356Z" fill="#F5F5F6"/>
</svg>
