<svg width="32" height="32" viewBox="0 0 32 32" fill="none" xmlns="http://www.w3.org/2000/svg">
<path d="M26.6667 16C26.6667 18.1096 26.0411 20.1719 24.8691 21.9261C23.697 23.6802 22.0311 25.0474 20.082 25.8547C18.1329 26.662 15.9882 26.8733 13.9191 26.4617C11.85 26.0501 9.94933 25.0342 8.45757 23.5425C6.96581 22.0507 5.94991 20.1501 5.53834 18.0809C5.12676 16.0118 5.338 13.8671 6.14533 11.918C6.95267 9.96895 8.31984 8.30304 10.074 7.13097C11.8281 5.9589 13.8904 5.33331 16 5.33331C18.829 5.33331 21.5421 6.45712 23.5425 8.45751C25.5429 10.4579 26.6667 13.171 26.6667 16ZM22.4267 14.08C22.6625 13.8442 22.7949 13.5245 22.7949 13.1911C22.7949 12.8577 22.6625 12.538 22.4267 12.3022C22.191 12.0665 21.8712 11.934 21.5378 11.934C21.2044 11.934 20.8847 12.0665 20.6489 12.3022L14.6312 18.32L11.5556 15.2533C11.3199 15.0176 11.0001 14.8851 10.6667 14.8851C10.3333 14.8851 10.0136 15.0176 9.77782 15.2533C9.54208 15.4891 9.40963 15.8088 9.40963 16.1422C9.40963 16.4756 9.54208 16.7953 9.77782 17.0311L14.6223 21.8755L22.4267 14.08Z" fill="#F5F5F6"/>
</svg>
