<svg width="32" height="32" viewBox="0 0 32 32" fill="none" xmlns="http://www.w3.org/2000/svg">
<rect width="32" height="32" rx="16" fill="#A396A6" fill-opacity="0.5"/>
<path d="M16 15.5557C16.6153 15.5557 17.2168 15.3733 17.7285 15.0314C18.2401 14.6895 18.6388 14.2037 18.8743 13.6352C19.1098 13.0667 19.1714 12.4412 19.0514 11.8377C18.9313 11.2342 18.635 10.6798 18.1999 10.2447C17.7648 9.80962 17.2105 9.51332 16.607 9.39328C16.0035 9.27323 15.3779 9.33484 14.8095 9.57032C14.241 9.80579 13.7551 10.2045 13.4132 10.7162C13.0714 11.2278 12.8889 11.8293 12.8889 12.4446C12.8889 13.2697 13.2167 14.061 13.8001 14.6445C14.3836 15.2279 15.1749 15.5557 16 15.5557ZM16 10.2224C16.4395 10.2224 16.8692 10.3527 17.2346 10.5969C17.6001 10.8411 17.8849 11.1881 18.0531 11.5942C18.2213 12.0003 18.2653 12.4471 18.1796 12.8781C18.0938 13.3092 17.8822 13.7052 17.5714 14.016C17.2606 14.3267 16.8646 14.5384 16.4336 14.6241C16.0025 14.7099 15.5557 14.6659 15.1496 14.4977C14.7436 14.3295 14.3965 14.0447 14.1523 13.6792C13.9081 13.3138 13.7778 12.8841 13.7778 12.4446C13.7778 11.8552 14.0119 11.29 14.4287 10.8733C14.8454 10.4565 15.4107 10.2224 16 10.2224Z" fill="#F5F5F6"/>
<path d="M21.5422 18.8313C20.8294 18.078 19.9705 17.478 19.018 17.0679C18.0654 16.6578 17.0392 16.4463 16.0022 16.4463C14.9651 16.4463 13.9389 16.6578 12.9864 17.0679C12.0338 17.478 11.1749 18.078 10.4622 18.8313C10.3076 18.9964 10.2218 19.2141 10.2222 19.4402V21.778C10.2222 22.0138 10.3158 22.2399 10.4825 22.4066C10.6492 22.5733 10.8753 22.6669 11.1111 22.6669H20.8888C21.1246 22.6669 21.3507 22.5733 21.5174 22.4066C21.6841 22.2399 21.7777 22.0138 21.7777 21.778V19.4402C21.7793 19.2147 21.6951 18.9971 21.5422 18.8313ZM20.8888 21.778H11.1111V19.4358C11.7409 18.7725 12.4992 18.2444 13.3397 17.8835C14.1801 17.5226 15.0853 17.3364 15.9999 17.3364C16.9146 17.3364 17.8198 17.5226 18.6602 17.8835C19.5007 18.2444 20.259 18.7725 20.8888 19.4358V21.778Z" fill="#F5F5F6"/>
</svg>
