<svg width="13" height="8" viewBox="0 0 13 8" fill="none" xmlns="http://www.w3.org/2000/svg">
<g opacity="0.72">
<path fill-rule="evenodd" clip-rule="evenodd" d="M11.9066 2.04664C12.1334 1.79008 12.1093 1.39826 11.8527 1.17149C11.5961 0.944714 11.2043 0.968858 10.9775 1.22542L6.47373 6.32074L5.64862 5.3856L8.59996 2.04664C8.82674 1.79008 8.80259 1.39826 8.54603 1.17149C8.28948 0.944714 7.89766 0.968858 7.67088 1.22542L4.39164 4.93534C4.36569 4.9601 4.34235 4.98662 4.32162 5.01455L3.16707 6.32074L1.15156 4.03649C0.925007 3.77973 0.533209 3.75525 0.276452 3.9818C0.0196955 4.20835 -0.00479177 4.60014 0.221758 4.8569L2.70176 7.66757C2.81939 7.80088 2.98859 7.87728 3.16639 7.87736C3.34418 7.87744 3.51345 7.80119 3.6312 7.66797L4.82104 6.32187L6.00843 7.66757C6.12606 7.80088 6.29526 7.87728 6.47305 7.87736C6.65085 7.87744 6.82012 7.80119 6.93786 7.66797L11.9066 2.04664Z" fill="#7B2CBF"/>
</g>
</svg>
