<svg width="32" height="32" viewBox="0 0 32 32" fill="none" xmlns="http://www.w3.org/2000/svg">
<rect width="32" height="32" rx="16" fill="#A396A6" fill-opacity="0.5"/>
<path d="M16.7156 15.9999L18.8756 13.8399C18.9484 13.7549 18.9864 13.6455 18.9821 13.5336C18.9778 13.4218 18.9314 13.3157 18.8522 13.2365C18.7731 13.1574 18.667 13.111 18.5551 13.1067C18.4433 13.1024 18.3339 13.1404 18.2489 13.2132L16.0889 15.351L13.9156 13.1777C13.8305 13.1049 13.7212 13.0668 13.6093 13.0711C13.4975 13.0755 13.3913 13.1218 13.3122 13.201C13.233 13.2801 13.1867 13.3862 13.1823 13.4981C13.178 13.6099 13.2161 13.7193 13.2889 13.8043L15.4578 15.9999L13.3333 18.0977C13.2868 18.1375 13.249 18.1865 13.2223 18.2417C13.1957 18.2968 13.1807 18.3569 13.1783 18.4181C13.1759 18.4793 13.1863 18.5403 13.2086 18.5974C13.2309 18.6544 13.2648 18.7062 13.3082 18.7495C13.3515 18.7928 13.4033 18.8267 13.4603 18.8491C13.5173 18.8714 13.5784 18.8817 13.6396 18.8794C13.7008 18.877 13.7608 18.862 13.816 18.8353C13.8711 18.8086 13.9202 18.7709 13.96 18.7243L16.08 16.6043L18.1867 18.711C18.2717 18.7838 18.3811 18.8219 18.4929 18.8175C18.6048 18.8132 18.7109 18.7669 18.79 18.6877C18.8692 18.6085 18.9155 18.5024 18.9199 18.3906C18.9242 18.2787 18.8861 18.1694 18.8133 18.0843L16.7156 15.9999Z" fill="#F5F5F6"/>
<path d="M16 23.1109C14.5936 23.1109 13.2187 22.6938 12.0493 21.9125C10.8799 21.1311 9.96844 20.0205 9.43022 18.7211C8.892 17.4217 8.75117 15.9919 9.02556 14.6125C9.29994 13.2331 9.97721 11.966 10.9717 10.9715C11.9662 9.97696 13.2333 9.2997 14.6127 9.02531C15.9921 8.75093 17.4219 8.89175 18.7213 9.42998C20.0207 9.9682 21.1313 10.8796 21.9127 12.0491C22.6941 13.2185 23.1111 14.5933 23.1111 15.9998C23.1111 17.8858 22.3619 19.6945 21.0283 21.0281C19.6948 22.3617 17.886 23.1109 16 23.1109ZM16 9.77756C14.7694 9.77756 13.5664 10.1425 12.5431 10.8262C11.5199 11.5099 10.7224 12.4817 10.2514 13.6186C9.7805 14.7556 9.65728 16.0067 9.89737 17.2137C10.1375 18.4207 10.7301 19.5294 11.6003 20.3996C12.4704 21.2698 13.5791 21.8624 14.7861 22.1025C15.9931 22.3425 17.2442 22.2193 18.3812 21.7484C19.5181 21.2774 20.4899 20.4799 21.1736 19.4567C21.8573 18.4334 22.2223 17.2304 22.2223 15.9998C22.2223 14.3496 21.5667 12.7669 20.3998 11.6C19.2329 10.4331 17.6503 9.77756 16 9.77756Z" fill="#F5F5F6"/>
</svg>
